# xmcd
#
# Track frame offsets: 
#        150
#        16885
#        38882
#        57920
#        81032
#        107180
#        130917
#        157897
#        185827
#        221975
#        245362
#        271775
#        304032
#
# Disc length: 4440 seconds
#
# Revision: 0
# Processed by: cddbd v1.5PL3 Copyright (c) Steve Scherf et al.
# Submitted via: ExactAudioCopy v0.90b4
#
DISCID=af11560d
DTITLE=GTS - CROSSOVER
DYEAR=2003
DGENRE=House
TTITLE0=Machine Gun
TTITLE1=Crazy For You
TTITLE2=My Revolution
TTITLE3=Crush
TTITLE4=Come On Soon
TTITLE5=My Destiny
TTITLE6=You're My Inspiration
TTITLE7=Electrify
TTITLE8=Love Is Taking Me Higer
TTITLE9=Soul Vacation
TTITLE10=Soul Searching
TTITLE11=Every Breath You Take
TTITLE12=DATA
EXTD=
EXTT0=
EXTT1=
EXTT2=
EXTT3=
EXTT4=
EXTT5=
EXTT6=
EXTT7=
EXTT8=
EXTT9=
EXTT10=
EXTT11=
EXTT12=
PLAYORDER=
